<?xml version="1.0" encoding="utf-8"?>
<!-- Generator: Adobe Illustrator 24.1.3, SVG Export Plug-In . SVG Version: 6.00 Build 0)  -->
<svg version="1.1" id="Layer_1" focusable="false" xmlns="http://www.w3.org/2000/svg" xmlns:xlink="http://www.w3.org/1999/xlink"
	 x="0px" y="0px" viewBox="0 0 581 581" style="enable-background:new 0 0 581 581;" xml:space="preserve">
<style type="text/css">
	.st0{fill:#8EA289;}
	.st1{fill:#FFFFFF;}
</style>
<path class="st0" d="M500.5,580.5h-420c-44.2,0-80-35.8-80-80v-420c0-44.2,35.8-80,80-80h420c44.2,0,80,35.8,80,80v420
	C580.5,544.7,544.7,580.5,500.5,580.5z"/>
<path class="st1" d="M104.8,179.8h371.4c7.9,0,14.3-6.4,14.3-14.3v-35.7c0-7.9-6.4-14.3-14.3-14.3H104.8c-7.9,0-14.3,6.4-14.3,14.3
	v35.7C90.5,173.4,96.9,179.8,104.8,179.8z M104.8,322.6h371.4c7.9,0,14.3-6.4,14.3-14.3v-35.7c0-7.9-6.4-14.3-14.3-14.3H104.8
	c-7.9,0-14.3,6.4-14.3,14.3v35.7C90.5,316.2,96.9,322.6,104.8,322.6z M104.8,465.5h371.4c7.9,0,14.3-6.4,14.3-14.3v-35.7
	c0-7.9-6.4-14.3-14.3-14.3H104.8c-7.9,0-14.3,6.4-14.3,14.3v35.7C90.5,459.1,96.9,465.5,104.8,465.5z"/>
</svg>
