<svg viewBox="0 0 254.41 374.09" xmlns="http://www.w3.org/2000/svg"><path d="m123.94 195.87h4.85c3.08 0 6.13 0 9.14-.07 69.34-1.06 116.41-14.12 116.41-30.08 0 0 3.67 141.08-41.56 185a0 0 0 0 0 0 0c-26.81 14.86-55.12 23.3-80.77 23.3a179.08 179.08 0 0 1 -81.5-19.02c-50.51-38.29-47.27-189.26-47.27-189.26 0 16.26 49.01 29.56 120.7 30.13zm97.55 36a5.63 5.63 0 1 0 -11.25 0 13.5 13.5 0 0 1 -27 0v-.45a5.52 5.52 0 0 0 -5.63-5.4 5.7 5.7 0 0 0 -5.62 5.62 24.75 24.75 0 1 0 49.5.23zm-17.11 73a6.09 6.09 0 0 0 1.63-8.58c-2-2.88-5.53-3.9-8.42-1.95-19.29 12.18-42.08 18.53-68.8 18.53-27.44 0-49.72-7-68.72-19a6.59 6.59 0 0 0 -9.41-.18 6.68 6.68 0 0 0 -.11 9.49 141.24 141.24 0 0 0 153.83 1.68zm-50.45-33.8-8.75-30.43c0-8.69-6.8-14.17-15.49-14.17s-15.53 5.71-15.53 14.4l-7.23 30.2a15.8 15.8 0 0 0 15.56 16h15.3a16.31 16.31 0 0 0 16.14-15.98zm-64.74-39.2v-.12a5.63 5.63 0 0 0 -11.25 0v.12a13.5 13.5 0 0 1 -27 0 5.85 5.85 0 0 0 -5.85-5.87 6.08 6.08 0 0 0 -6 6c0 13.67 11.69 24.65 25.36 24.65a24.76 24.76 0 0 0 24.74-24.76z" fill="#002141"/><path d="m129.76 68.83c.08-11.16 2.73-37.78 24.23-57.89 27.9-26.1 73.8 2.7 73.8 2.7s22.64 28.25-89.86 62.45v-2h-8a52.49 52.49 0 0 1 -.17-5.26z" fill="#002141"/><path d="m137.93 135.66c69.34 1.05 116.41 14.12 116.41 30.08s-47.07 29-116.41 30.08v-13.62c54.57-.67 90.76-8 90.76-17s-36.19-16.34-90.76-17z" fill="#002141"/><path d="m215.86 226a5.74 5.74 0 0 1 5.63 5.85 24.75 24.75 0 1 1 -49.5-.23 5.7 5.7 0 0 1 5.62-5.62 5.52 5.52 0 0 1 5.63 5.4v.45a13.5 13.5 0 0 0 27 0 5.74 5.74 0 0 1 5.62-5.85z" fill="#fdfbf1"/><path d="m206 296.31a6.09 6.09 0 0 1 -1.63 8.58 141.24 141.24 0 0 1 -153.83-1.68 6.68 6.68 0 0 1 .11-9.49 6.59 6.59 0 0 1 9.41.18c19 12 41.28 19 68.72 19 26.72 0 49.51-6.35 68.8-18.53 2.9-1.96 6.47-.94 8.42 1.94z" fill="#fdfbf1"/><path d="m137.93 148.21c54.57.66 90.76 8 90.76 17s-36.19 16.32-90.76 17z" fill="#fdfbf1"/><path d="m145.18 240.66 8.75 30.43a16.31 16.31 0 0 1 -16.14 16h-15.3a15.8 15.8 0 0 1 -15.56-16l7.23-30.2c0-8.69 6.82-14.4 15.53-14.4s15.49 5.51 15.49 14.17z" fill="#fdfbf1"/><g fill="#002141"><path d="m137.93 182.2v13.62c-3 0-6.06.07-9.14.07h-4.85v-13.65h5.75c2.79.01 5.53 0 8.24-.04z"/><path d="m137.93 148.21v34c-2.71 0-5.45.05-8.24.05h-5.75v-34.09h5.75c2.79-.02 5.53 0 8.24.04z"/><path d="m137.93 135.66v12.55c-2.71 0-5.45-.06-8.24-.06h-5.75v-12.54h4.85c3.08-.02 6.13.01 9.14.05z"/><path d="m137.93 76.09v59.57c-3 0-6.06-.07-9.14-.07h-4.85v-61.5h14z"/><path d="m129.93 74.09h-6v3c-27 2.7-41.95 15.75-84.25-.45s-39.68-33.2-39.68-33.2c74.78-51.21 126.37 20.5 129.76 25.39a52.49 52.49 0 0 0 .17 5.26z"/><path d="m123.94 182.24v13.63c-71.69-.57-120.7-13.87-120.7-30.13s49-29.56 120.7-30.13v12.56c-56 .49-93.25 7.92-93.25 17s37.31 16.58 93.25 17.07z"/></g><path d="m123.94 148.17v34.07c-56-.49-93.25-7.92-93.25-17s37.31-16.58 93.25-17.07z" fill="#fdfbf1"/><path d="m89.19 231.77v.12a24.76 24.76 0 0 1 -24.75 24.75c-13.67 0-25.36-11-25.36-24.65a6.08 6.08 0 0 1 6-6 5.85 5.85 0 0 1 5.85 5.85 13.5 13.5 0 0 0 27 0v-.12a5.63 5.63 0 0 1 11.25 0z" fill="#fdfbf1"/></svg>