<?xml version="1.0" encoding="utf-8"?>
<!-- Generator: Adobe Illustrator 24.1.3, SVG Export Plug-In . SVG Version: 6.00 Build 0)  -->
<svg version="1.1" id="c9533a1a-3341-4132-b58a-1916f0ec6876"
	 xmlns="http://www.w3.org/2000/svg" xmlns:xlink="http://www.w3.org/1999/xlink" x="0px" y="0px" viewBox="0 0 177.6 166.1"
	 style="enable-background:new 0 0 177.6 166.1;" xml:space="preserve">
<style type="text/css">
	.st0{fill:#05668D;}
	.st1{opacity:0.2;enable-background:new    ;}
	.st2{fill:#535461;}
	.st3{fill:#89A387;}
	.st4{opacity:0.2;fill:#89A387;enable-background:new    ;}
	.st5{fill:#678763;}
	.st6{fill:#CC6550;}
	.st7{fill:#E07A5F;}
	.st8{opacity:0.1;enable-background:new    ;}
</style>
<polygon class="st0" points="19.5,22.2 13,22.2 0,135.7 28.9,134.3 "/>
<polygon class="st1" points="19.5,22.2 13,22.2 0,135.7 28.9,134.3 "/>
<polygon class="st0" points="17.3,20.8 9.4,135 78.8,142.2 86.7,30.9 "/>
<circle class="st1" cx="36.1" cy="30.9" r="1.4"/>
<circle class="st1" cx="66.5" cy="34.5" r="1.4"/>
<path class="st2" d="M66.9,34.5h-0.7c0-0.3,0.5-30.8-17-33.6c-3.5-0.6-6.3,0.2-8.4,2.3c-7.2,7.2-4.2,27.4-4.2,27.6l-0.7,0.1
	c-0.1-0.9-3.1-20.8,4.4-28.2c2.3-2.3,5.3-3.1,9-2.5C67.4,3.1,66.9,34.2,66.9,34.5z"/>
<polygon class="st3" points="177.6,145.3 151.5,156.2 121.2,50.5 128.3,42 141.3,40 "/>
<polygon class="st4" points="177.6,145.3 151.5,156.2 121.2,50.5 128.3,42 141.3,40 "/>
<polygon class="st5" points="128.3,42 83,47.8 106.2,159.7 151.5,156.2 "/>
<polygon class="st6" points="130.1,163.9 101.9,166.1 106.3,56.2 115.7,50.4 128.7,52.6 "/>
<polygon class="st7" points="115.7,50.4 70.8,41.7 57.8,155.2 101.9,166.1 "/>
<path class="st8" d="M-81,142.2v9.4"/>
<ellipse transform="matrix(0.2867 -0.958 0.958 0.2867 20.6275 138.8888)" class="st1" cx="103.6" cy="55.6" rx="1.4" ry="1.2"/>
<ellipse transform="matrix(0.2867 -0.958 0.958 0.2867 6.3509 112.2882)" class="st1" cx="78.6" cy="51.9" rx="1.4" ry="1.2"/>
<path class="st2" d="M78.3,51.8l0.6,0.2c0.1-0.3,8.4-29.6,23.1-28.2c2.7,0.1,5,1.7,6,4.2c3.7,8.6-4.5,27.3-4.6,27.5l0.5,0.3
	c0.3-0.8,8.4-19.2,4.6-28.1c-1.1-2.7-3.6-4.4-6.5-4.5C86.9,21.6,78.4,51.5,78.3,51.8z"/>
<path class="st2" d="M97.2,46h0.6c0-0.2-1-22,13.4-24.5c2.4-0.6,5,0,7,1.5c6.1,5.2,4.1,19.7,4.1,19.8l0.6-0.1
	c0.1-0.6,2-14.8-4.3-20.1c-2.1-1.7-4.9-2.3-7.5-1.7C96.2,23.5,97.2,45.8,97.2,46z"/>
</svg>
