<svg width="21" height="20" viewBox="0 0 21 20" fill="none" xmlns="http://www.w3.org/2000/svg">
<path d="M13.8408 10L20.3081 3.84069C21.2306 2.96207 21.2306 1.53758 20.3081 0.658962C19.3855 -0.219654 17.8899 -0.219654 16.9673 0.658962L10.5 6.81828L4.03272 0.658962C3.11017 -0.219654 1.61446 -0.219654 0.69191 0.658962C-0.230637 1.53758 -0.230637 2.96207 0.69191 3.84069L7.15919 10L0.69191 16.1593C-0.230637 17.0379 -0.230637 18.4624 0.69191 19.341C1.15318 19.7803 1.75774 20 2.36229 20C2.96685 20 3.57145 19.7803 4.03267 19.341L10.5 13.1817L16.9673 19.341C17.4286 19.7803 18.0331 20 18.6377 20C19.2422 20 19.8468 19.7803 20.308 19.341C21.2306 18.4624 21.2306 17.0379 20.308 16.1593L13.8408 10Z" fill="#D27F65"/>
</svg>
