<svg xmlns="http://www.w3.org/2000/svg" viewBox="0 0 254.41 374.09">
  <defs>
    <style>
      .cls-1 {
        fill: #002141;
      }

      .cls-2 {
        fill: #fdfbf1;
      }
    </style>
  </defs>
  <g id="Layer_2" data-name="Layer 2">
    <g id="Layer_1-2" data-name="Layer 1">
      <g>
        <path class="cls-1" d="M123.94,195.87l4.85,0c3.08,0,6.13,0,9.14-.07,69.34-1.06,116.41-14.12,116.41-30.08,0,0,3.67,141.08-41.56,185a0,0,0,0,0,0,0c-26.81,14.86-55.12,23.3-80.77,23.3A179.08,179.08,0,0,1,50.51,355C0,316.71,3.24,165.74,3.24,165.74,3.24,182,52.25,195.3,123.94,195.87Zm97.55,36a5.63,5.63,0,1,0-11.25,0,13.5,13.5,0,0,1-27,0v-.45a5.52,5.52,0,0,0-5.63-5.4,5.7,5.7,0,0,0-5.62,5.62,24.75,24.75,0,1,0,49.5.23Zm-17.11,73a6.09,6.09,0,0,0,1.63-8.58c-2-2.88-5.53-3.9-8.42-1.95-19.29,12.18-42.08,18.53-68.8,18.53-27.44,0-49.72-7-68.72-19a6.59,6.59,0,0,0-9.41-.18,6.68,6.68,0,0,0-.11,9.49,141.24,141.24,0,0,0,153.83,1.68Zm-50.45-33.8-8.75-30.43c0-8.69-6.8-14.17-15.49-14.17s-15.53,5.71-15.53,14.4l-7.23,30.2a15.8,15.8,0,0,0,15.56,16h15.3A16.31,16.31,0,0,0,153.93,271.09Zm-64.74-39.2v-.12a5.63,5.63,0,0,0-11.25,0v.12a13.5,13.5,0,0,1-27,0A5.85,5.85,0,0,0,45.09,226a6.08,6.08,0,0,0-6,6c0,13.67,11.69,24.65,25.36,24.65A24.76,24.76,0,0,0,89.19,231.89Z"/>
        <path class="cls-1" d="M129.76,68.83c.08-11.16,2.73-37.78,24.23-57.89,27.9-26.1,73.8,2.7,73.8,2.7s22.64,28.25-89.86,62.45v-2h-8A52.49,52.49,0,0,1,129.76,68.83Z"/>
        <path class="cls-1" d="M137.93,135.66c69.34,1.05,116.41,14.12,116.41,30.08s-47.07,29-116.41,30.08V182.2c54.57-.67,90.76-8,90.76-17s-36.19-16.34-90.76-17Z"/>
        <path class="cls-2" d="M215.86,226a5.74,5.74,0,0,1,5.63,5.85,24.75,24.75,0,1,1-49.5-.23,5.7,5.7,0,0,1,5.62-5.62,5.52,5.52,0,0,1,5.63,5.4v.45a13.5,13.5,0,0,0,27,0A5.74,5.74,0,0,1,215.86,226Z"/>
        <path class="cls-2" d="M206,296.31a6.09,6.09,0,0,1-1.63,8.58,141.24,141.24,0,0,1-153.83-1.68,6.68,6.68,0,0,1,.11-9.49,6.59,6.59,0,0,1,9.41.18c19,12,41.28,19,68.72,19,26.72,0,49.51-6.35,68.8-18.53C200.48,292.41,204.05,293.43,206,296.31Z"/>
        <path class="cls-2" d="M137.93,148.21c54.57.66,90.76,8,90.76,17s-36.19,16.32-90.76,17Z"/>
        <path class="cls-2" d="M145.18,240.66l8.75,30.43a16.31,16.31,0,0,1-16.14,16h-15.3a15.8,15.8,0,0,1-15.56-16l7.23-30.2c0-8.69,6.82-14.4,15.53-14.4S145.18,232,145.18,240.66Z"/>
        <path class="cls-1" d="M137.93,182.2v13.62c-3,0-6.06.07-9.14.07l-4.85,0V182.24h5.75C132.48,182.25,135.22,182.24,137.93,182.2Z"/>
        <path class="cls-1" d="M137.93,148.21v34c-2.71,0-5.45.05-8.24.05h-5.75V148.17l5.75,0C132.48,148.15,135.22,148.17,137.93,148.21Z"/>
        <path class="cls-1" d="M137.93,135.66v12.55c-2.71,0-5.45-.06-8.24-.06l-5.75,0V135.61l4.85,0C131.87,135.59,134.92,135.62,137.93,135.66Z"/>
        <path class="cls-1" d="M137.93,76.09v59.57c-3,0-6.06-.07-9.14-.07l-4.85,0V74.09h14Z"/>
        <path class="cls-1" d="M129.93,74.09h-6v3c-27,2.7-41.95,15.75-84.25-.45S0,43.44,0,43.44C74.78-7.77,126.37,63.94,129.76,68.83A52.49,52.49,0,0,0,129.93,74.09Z"/>
        <path class="cls-1" d="M123.94,182.24v13.63C52.25,195.3,3.24,182,3.24,165.74s49-29.56,120.7-30.13v12.56c-56,.49-93.25,7.92-93.25,17S68,181.75,123.94,182.24Z"/>
        <path class="cls-2" d="M123.94,148.17v34.07c-56-.49-93.25-7.92-93.25-17S68,148.66,123.94,148.17Z"/>
        <path class="cls-2" d="M89.19,231.77v.12a24.76,24.76,0,0,1-24.75,24.75c-13.67,0-25.36-11-25.36-24.65a6.08,6.08,0,0,1,6-6,5.85,5.85,0,0,1,5.85,5.85,13.5,13.5,0,0,0,27,0v-.12a5.63,5.63,0,0,1,11.25,0Z"/>
      </g>
    </g>
  </g>
</svg>
