<svg xmlns="http://www.w3.org/2000/svg" viewBox="0 0 486 493">
  <defs>
    <style>
      .cls-1 {
        fill: #00213f;
      }

      .cls-2 {
        fill: #fefcf3;
      }
    </style>
  </defs>
  <g id="Layer_1" data-name="Layer 1">
    <g>
      <path class="cls-1" d="M251.2,100.8s-2.93-4.31-8.4-10.73c.7-17.07,5.66-51,32.07-75.68,36.69-34.33,97.06,3.55,97.06,3.55s26.94,37.48-118.43,82.14Z"/>
      <path class="cls-1" d="M242.8,90.07c5.47,6.42,8.4,10.73,8.4,10.73l2.3-.72v78.34c-3.87-.07-7.8-.09-11.77-.09q-3.64,0-7.24,0V101.07c-34,4.09-55.63,20.52-109.95-.27C78,83,72.84,64.43,72.4,58.83c1.39-1.52,2.8-3,4.23-4.51C156.56,3.17,220.6,64,242.8,90.07Z"/>
      <path class="cls-1" d="M253.5,178.42C344.84,179.78,406.85,197,406.85,218c0,21.9-67.39,39.65-165.12,39.65S76.6,239.88,76.6,218c0-21.35,64.08-38.77,157.89-39.62v16.53c-73.12.69-121.78,10.45-121.78,22.38s48.66,21.7,121.78,22.39q4.15,0,8.42,0c3.59,0,7.11,0,10.59-.07,71.91-.87,119.62-10.54,119.62-22.36s-47.71-21.49-119.62-22.35Z"/>
      <path class="cls-1" d="M174.49,305a7.15,7.15,0,0,0,.25,1.87,17.75,17.75,0,0,1-35.35-.61,6.56,6.56,0,0,0,.11-1.26,4,4,0,0,0,0-.49h35A2.69,2.69,0,0,0,174.49,305Z"/>
      <path class="cls-2" d="M124.52,304.51h15a4,4,0,0,1,0,.49,6.56,6.56,0,0,1-.11,1.26,7.49,7.49,0,0,1-14.81-.23,5.73,5.73,0,0,1-.08-1A4,4,0,0,1,124.52,304.51Z"/>
      <path class="cls-1" d="M298.5,304.51a5.93,5.93,0,0,0,.06.84,32.55,32.55,0,0,0,65.09-.37,3.7,3.7,0,0,0,0-.47h-.15a7.5,7.5,0,0,0-15,0h-35a7.55,7.55,0,0,0-14.92-1A4.94,4.94,0,0,0,298.5,304.51Zm-3.89,126a9,9,0,1,0,.58-18,193,193,0,0,0-104.69,2l0,.15a6,6,0,0,0-1,.23,8.5,8.5,0,0,0,5,16.24v0l2.92-.94c32.95-10.13,65.33-8.73,94.07-.66A8.85,8.85,0,0,0,294.61,430.46ZM189.65,305h-.15a4,4,0,0,0,0-.49,7.5,7.5,0,0,0-15,0h-35a7.5,7.5,0,0,0-15,0,4,4,0,0,0,0,.49,5.73,5.73,0,0,0,.08,1,32.54,32.54,0,0,0,65.07-1Zm38.86-.49a20.51,20.51,0,0,0-5.63,10.54h-.09l-8.41,33.63a20.61,20.61,0,0,0-1.57,10c.95,10.75,10.3,18.83,21.09,18.83h19.19c10.81,0,20.16-8.08,21.11-18.83a21.11,21.11,0,0,0-.57-7.05l.16-.05-10.11-36.72-.6,0a20.49,20.49,0,0,0-34.57-10.36ZM406.85,218s4.83,185.6-54.67,243.36c0,0,0,0,0,0C316.9,480.9,279.68,492,246,492c-39.21,0-75.41-9-107.18-25.18h0C72.4,416.48,76.6,218,76.6,218c0,21.9,67.39,39.65,165.13,39.65S406.85,239.88,406.85,218Z"/>
      <path class="cls-2" d="M363.63,304.51a3.7,3.7,0,0,1,0,.47,32.55,32.55,0,0,1-65.09.37,7.6,7.6,0,0,0,14.8.5,17.75,17.75,0,0,0,35.38,1A7.5,7.5,0,0,0,363.5,305a4,4,0,0,0,0-.49Z"/>
      <path class="cls-2" d="M348.74,306.87a7.15,7.15,0,0,1-.25-1.87,2.69,2.69,0,0,1,0-.49h15a4,4,0,0,1,0,.49,7.5,7.5,0,0,1-14.76,1.87Z"/>
      <path class="cls-2" d="M363.48,304.51h-15a7.5,7.5,0,0,1,15,0Z"/>
      <path class="cls-1" d="M348.49,305a7.15,7.15,0,0,0,.25,1.87,17.75,17.75,0,0,1-35.38-1,5.92,5.92,0,0,0,.15-1.34h35A2.69,2.69,0,0,0,348.49,305Z"/>
      <path class="cls-2" d="M253.5,194.92c71.91.86,119.62,10.54,119.62,22.35s-47.71,21.49-119.62,22.36Z"/>
      <path class="cls-2" d="M313.51,304.51H298.56c0-.35,0-.69,0-1a7.55,7.55,0,0,1,14.92,1Z"/>
      <path class="cls-2" d="M313.36,305.85a7.6,7.6,0,0,1-14.8-.5,2.3,2.3,0,0,1,0-.37,3.7,3.7,0,0,1,0-.47h14.95A5.92,5.92,0,0,1,313.36,305.85Z"/>
      <path class="cls-2" d="M304.09,418.86a9,9,0,0,1-9.48,11.6c-1-.32-2.07-.62-3.11-.9a9,9,0,0,1,1.35-16.67,9.47,9.47,0,0,1,2.34-.39c1.77.47,3.51,1,5.25,1.48A8.85,8.85,0,0,1,304.09,418.86Z"/>
      <path class="cls-2" d="M298.56,304.51a3.7,3.7,0,0,0,0,.47,2.3,2.3,0,0,0,0,.37,5.93,5.93,0,0,1-.06-.84Z"/>
      <path class="cls-1" d="M300.44,414c-1.74-.52-3.48-1-5.25-1.48A9,9,0,0,1,300.44,414Z"/>
      <path class="cls-2" d="M295.19,412.5a9.47,9.47,0,0,0-2.34.39,9,9,0,0,0-1.35,16.67c-28.74-8.07-61.12-9.47-94.07.66l-2.92.94v0a8.49,8.49,0,0,0-4-16.47l0-.15A193,193,0,0,1,295.19,412.5Z"/>
      <path class="cls-1" d="M291.5,429.56c1,.28,2.08.58,3.11.9A8.85,8.85,0,0,1,291.5,429.56Z"/>
      <path class="cls-2" d="M222.88,315.05a20.51,20.51,0,0,1,5.63-10.54h29a20.4,20.4,0,0,1,5.59,10.36l.6,0,10.11,36.72-.16.05a21.11,21.11,0,0,1,.57,7.05c-.95,10.75-10.3,18.83-21.11,18.83H233.9c-10.79,0-20.14-8.08-21.09-18.83a20.61,20.61,0,0,1,1.57-10L222.79,315Z"/>
      <path class="cls-2" d="M257.49,304.51h-29a20.47,20.47,0,0,1,29,0Z"/>
      <path class="cls-1" d="M253.5,194.92v44.71c-3.48.05-7,.07-10.59.07q-4.26,0-8.42,0V194.89q4.15,0,8.42,0C246.5,194.85,250,194.87,253.5,194.92Z"/>
      <path class="cls-1" d="M253.5,178.42v16.5c-3.48,0-7-.07-10.59-.07q-4.26,0-8.42,0V178.36q3.6,0,7.24,0C245.7,178.33,249.63,178.35,253.5,178.42Z"/>
      <path class="cls-2" d="M234.49,194.89v44.77c-73.12-.69-121.78-10.45-121.78-22.39S161.37,195.58,234.49,194.89Z"/>
      <path class="cls-2" d="M200.12,420.51a8.49,8.49,0,1,1-10.62-5.63,6,6,0,0,1,1-.23A8.46,8.46,0,0,1,200.12,420.51Z"/>
      <path class="cls-2" d="M189.5,305h.15a32.54,32.54,0,0,1-65.07,1,7.49,7.49,0,0,0,14.81.23,17.75,17.75,0,0,0,35.35.61A7.5,7.5,0,0,0,189.5,305Z"/>
      <path class="cls-2" d="M174.74,306.87a7.15,7.15,0,0,1-.25-1.87,2.69,2.69,0,0,1,0-.49h15a4,4,0,0,1,0,.49,7.5,7.5,0,0,1-14.76,1.87Z"/>
      <path class="cls-2" d="M189.48,304.51h-15a7.5,7.5,0,0,1,15,0Z"/>
      <path class="cls-2" d="M139.48,304.51h-15a7.5,7.5,0,0,1,15,0Z"/>
    </g>
  </g>
</svg>
